<svg width="43" height="44" viewBox="0 0 43 44" fill="none" xmlns="http://www.w3.org/2000/svg">
<path d="M39.1607 18.0714H26.1071C25.6831 18.0714 25.3393 17.7196 25.3393 17.2857V3.92857C25.3393 1.75903 23.6202 0 21.5 0C19.3798 0 17.6607 1.75903 17.6607 3.92857V17.2857C17.6607 17.7196 17.3169 18.0714 16.8929 18.0714H3.83929C1.71906 18.0714 0 19.8305 0 22C0 24.1695 1.71906 25.9286 3.83929 25.9286H16.8929C17.3169 25.9286 17.6607 26.2804 17.6607 26.7143V40.0714C17.6607 42.241 19.3798 44 21.5 44C23.6202 44 25.3393 42.241 25.3393 40.0714V26.7143C25.3393 26.2804 25.6831 25.9286 26.1071 25.9286H39.1607C41.2809 25.9286 43 24.1695 43 22C43 19.8305 41.2809 18.0714 39.1607 18.0714Z" fill="white"/>
</svg>
