<?xml version="1.0" encoding="iso-8859-1"?>
<!-- Generator: Adobe Illustrator 19.0.0, SVG Export Plug-In . SVG Version: 6.00 Build 0)  -->
<svg version="1.1" id="Capa_1" xmlns="http://www.w3.org/2000/svg" xmlns:xlink="http://www.w3.org/1999/xlink" x="0px" y="0px"
	 viewBox="0 0 511.987 511.987" style="enable-background:new 0 0 511.987 511.987;" xml:space="preserve">
<g>
	<g>
		<g>
			<path fill="#ffff" d="M392.527,59.72V26.816c0.084-8.429-3.667-16.439-10.196-21.771c-5.535-4.434-12.807-6.064-19.704-4.417l-244.93,59.27
				C104.309,60.8,93.899,71.903,93.86,85.32v401.067c0.015,14.132,11.468,25.585,25.6,25.6h273.067
				c14.132-0.015,25.585-11.468,25.6-25.6V85.32C418.111,71.188,406.659,59.736,392.527,59.72z M366.644,17.22
				c1.81-0.42,3.713,0.038,5.133,1.237c2.429,2.085,3.784,5.158,3.683,8.358V59.72H191.014L366.644,17.22z M401.06,486.387
				c-0.006,4.71-3.823,8.527-8.533,8.533H119.46c-4.71-0.006-8.527-3.823-8.533-8.533V85.32c0.006-4.71,3.823-8.527,8.533-8.533
				h273.067c4.71,0.006,8.527,3.823,8.533,8.533V486.387z"/>
			<path fill="#ffff" d="M298.66,364.925c14.132-0.015,25.585-11.468,25.6-25.6v-102.4c9.422-0.009,17.057-7.645,17.067-17.067v-51.2
				c0-37.3-19.191-63.196-50.088-67.588l-8.45-1.196c-2.447-0.346-4.924,0.387-6.791,2.007c-1.866,1.621-2.938,3.971-2.939,6.443
				v231C273.076,353.457,284.528,364.909,298.66,364.925z M290.127,118.17c30.775,5.217,34.133,36.946,34.133,50.487v51.2h-8.533
				c-4.713,0-8.533,3.821-8.533,8.533v110.933c0,4.713-3.82,8.533-8.533,8.533s-8.533-3.82-8.533-8.533V118.17z"/>
			<path fill="#ffff" d="M187.727,206.725v132.6c0,14.139,11.461,25.6,25.6,25.6s25.6-11.461,25.6-25.6v-132.6
				c10.578-6.067,17.091-17.339,17.067-29.533v-68.267c0-4.713-3.82-8.533-8.533-8.533s-8.533,3.82-8.533,8.533v42.667
				c0,4.713-3.821,8.533-8.533,8.533c-4.713,0-8.533-3.82-8.533-8.533v-42.667c0-4.713-3.82-8.533-8.533-8.533
				s-8.533,3.82-8.533,8.533v42.667c0,4.713-3.82,8.533-8.533,8.533s-8.533-3.82-8.533-8.533v-42.667
				c0-4.713-3.82-8.533-8.533-8.533s-8.533,3.82-8.533,8.533v68.267C170.635,189.385,177.149,200.657,187.727,206.725z
				 M187.727,175.618c2.733,1.012,5.62,1.544,8.533,1.573c6.319-0.02,12.404-2.394,17.067-6.658
				c6.879,6.412,16.793,8.382,25.6,5.086v1.572c0.042,7.195-4.496,13.621-11.292,15.988c-3.454,1.179-5.775,4.425-5.775,8.075
				v138.071c0,4.713-3.82,8.533-8.533,8.533s-8.533-3.82-8.533-8.533V201.254c0-3.65-2.321-6.896-5.775-8.075
				c-6.795-2.367-11.333-8.792-11.292-15.988V175.618z"/>
			<path fill="#ffff" d="M170.66,433.191h119.467c4.713,0,8.533-3.82,8.533-8.533s-3.821-8.533-8.533-8.533H170.66
				c-4.713,0-8.533,3.82-8.533,8.533S165.947,433.191,170.66,433.191z"/>
			<path fill="#ffff" d="M341.327,416.125H324.26c-4.713,0-8.533,3.82-8.533,8.533s3.82,8.533,8.533,8.533h17.067c4.713,0,8.533-3.82,8.533-8.533
				S346.04,416.125,341.327,416.125z"/>
			<path fill="#ffff" d="M341.327,450.258H273.06c-4.713,0-8.533,3.82-8.533,8.533s3.82,8.533,8.533,8.533h68.267c4.713,0,8.533-3.82,8.533-8.533
				S346.04,450.258,341.327,450.258z"/>
			<path fill="#ffff" d="M238.927,450.258h-8.533c-4.713,0-8.533,3.82-8.533,8.533s3.821,8.533,8.533,8.533h8.533c4.713,0,8.533-3.82,8.533-8.533
				S243.64,450.258,238.927,450.258z"/>
			<path fill="#ffff" d="M196.26,450.258h-25.6c-4.713,0-8.533,3.82-8.533,8.533s3.82,8.533,8.533,8.533h25.6c4.713,0,8.533-3.82,8.533-8.533
				S200.973,450.258,196.26,450.258z"/>
		</g>
	</g>
</g>
<g>
</g>
<g>
</g>
<g>
</g>
<g>
</g>
<g>
</g>
<g>
</g>
<g>
</g>
<g>
</g>
<g>
</g>
<g>
</g>
<g>
</g>
<g>
</g>
<g>
</g>
<g>
</g>
<g>
</g>
</svg>
